<svg xmlns="http://www.w3.org/2000/svg" version="1.1" xmlns:xlink="http://www.w3.org/1999/xlink" viewBox="0 0 700 700" style="overflow: hidden; display: block;" width="700" height="700"><defs></defs><g id="two-0" transform="matrix(1 0 0 1 0 0)" opacity="1"><path transform="matrix(1 0 0 1 350 350)" id="two-36" d="M 218.951119 39.73377 C 246.757219 63.169663 318.293127 80.941655 301.220156 113.049815 C 269.995451 171.77233 142.40778 7.678797 105.921371 63.285073 C 85.211097 94.848091 197.259133 122.563387 175.962325 153.733654 C 162.417508 173.558013 129.231265 126.430542 106.179463 133.144835 C 95.884988 136.143305 95.458347 156.239547 84.827356 157.635642 C 67.857975 159.864114 58.873354 129.95753 41.806893 128.668387 C 33.467373 128.038448 24.186108 133.026204 18.897206 139.504779 C -8.117472 172.596071 30.600108 261.041054 -11.911651 265.233512 C -37.261789 267.733512 -19.652746 200.564875 -44.574423 195.293307 C -71.129031 189.676332 -83.544167 263.705603 -106.573104 249.340169 C -149.438401 222.600829 -35.292453 140.812179 -66.970209 101.455529 C -73.479054 93.368899 -88.497067 106.045867 -98.393139 102.911154 C -106.721508 100.273032 -110.796296 88.643526 -119.309838 86.68367 C -154.717665 78.532626 -191.616139 117.357027 -227.055491 109.344161 C -245.242545 105.232053 -272.627287 93.692839 -271.967886 75.058367 C -270.722221 39.856233 -210.444236 38.225787 -182.758593 16.448571 C -171.361314 7.483598 -158.325411 -1.250965 -150.659501 -13.559601 C -145.945834 -21.12802 -141.317036 -30.620126 -142.804263 -39.411473 C -145.88741 -57.63668 -165.569926 -69.278137 -175.810845 -84.666041 C -192.238735 -109.350426 -214.489414 -132.941157 -222.33475 -161.535652 C -228.479044 -183.930226 -237.283284 -214.666009 -221.722168 -231.903206 C -207.494139 -247.663729 -177.528534 -246.805827 -157.775117 -239.019085 C -105.50476 -218.414256 -98.327315 -87.102884 -46.92647 -109.789935 C 16.241515 -137.670708 -119.429681 -266.852097 -72.458315 -317.460619 C -59.349517 -331.584478 -29.352402 -326.487176 -14.131823 -314.669479 C 20.818255 -287.533229 -17.964041 -195.950587 25.263497 -186.502629 C 52.170419 -180.621761 55.24484 -258.966671 80.831949 -248.775161 C 112.817877 -236.034961 61.03349 -174.585956 77.752226 -144.487848 C 82.497477 -135.94515 93.627199 -130.627977 103.343999 -129.589277 C 128.056415 -126.947586 150.303046 -149.82427 174.969398 -152.866161 C 198.777454 -155.802205 235.665866 -168.740218 247.489526 -147.868109 C 259.899135 -125.961632 204.765409 -103.728104 212.85731 -79.886685 C 220.218826 -58.197218 275.568403 -72.900348 275.499347 -49.995761 C 275.382362 -11.194368 173.597945 -38.537355 169.07754 -0.000001 C 166.626031 20.899603 202.860944 26.172442 218.951119 39.73377 Z " fill="#134445" stroke="undefined" stroke-width="1" stroke-opacity="1" fill-opacity="1" visibility="visible" stroke-linecap="butt" stroke-linejoin="miter" stroke-miterlimit="4"></path></g></svg>